<svg width="42" height="42" viewBox="0 0 42 42" fill="none" xmlns="http://www.w3.org/2000/svg">
<g clip-path="url(#clip0)">
<path d="M21.0007 42C32.5799 42 42.0002 32.5793 42.0002 20.9999C42.0002 9.42068 32.5799 0 21.0007 0C9.42147 0 0.000976562 9.42068 0.000976562 20.9999C0.000976562 32.5793 9.42147 42 21.0007 42ZM21.0007 2.87473C30.9948 2.87473 39.1255 11.0056 39.1257 20.9999C39.1257 30.9942 30.995 39.1251 21.0007 39.1253C11.0066 39.1251 2.8759 30.9942 2.8759 20.9997C2.8759 11.0058 11.0066 2.87473 21.0007 2.87473Z" fill="#404059"/>
<path d="M18.18 29.9944C18.7413 30.5555 19.6515 30.5553 20.2126 29.9944C20.7742 29.4328 20.7742 28.5229 20.2124 27.9614L14.6891 22.4382L30.6836 22.4367C31.4774 22.4365 32.1207 21.7931 32.1207 20.999C32.1205 20.2051 31.4772 19.562 30.6834 19.562L14.6884 19.5635L20.213 14.0392C20.7744 13.4779 20.7744 12.5676 20.213 12.0064C19.9323 11.7258 19.5645 11.5854 19.1965 11.5854C18.8287 11.5854 18.461 11.7258 18.1802 12.0062L10.2021 19.9842C9.93241 20.2536 9.78101 20.6191 9.78101 21.0005C9.7812 21.3819 9.9326 21.7471 10.2023 22.0172L18.18 29.9944Z" fill="#404059"/>
</g>
<defs>
<clipPath id="clip0">
<rect width="42" height="42" fill="white"/>
</clipPath>
</defs>
</svg>
